<svg xmlns="http://www.w3.org/2000/svg" version="1.1" xmlns:xlink="http://www.w3.org/1999/xlink" xmlns:svgjs="http://svgjs.dev/svgjs" viewBox="0 0 600 600" opacity="1"><path d="M2.622377634048462,361.88812255859375C-0.8741258780161538,309.2657419840495,-6.818182269732157,195.6293690999349,4.720279693603516,154.19580078125C16.258741656939186,112.7622324625651,26.748256047566734,114.68531290690105,71.8531494140625,113.28671264648438C116.95804278055826,111.8881123860677,210.489501953125,148.77622731526694,275.3496398925781,145.80419921875C340.20977783203125,142.83217112223306,408.91607157389325,89.68531290690105,461.01397705078125,95.45454406738281C513.1118825276693,101.22377522786458,565.5594482421875,124.30070241292319,587.9370727539062,180.41958618164062C610.314697265625,236.53846995035806,616.9580485026041,377.44756571451825,595.2797241210938,432.1678466796875C573.6013997395834,486.88812764485675,508.91607666015625,498.7762400309245,457.86712646484375,508.74127197265625C406.81817626953125,518.7063039143881,344.05595143636066,477.27272542317706,288.98602294921875,491.9580383300781C233.9160944620768,506.6433512369792,167.13287162780762,583.7412567138672,127.44755554199219,596.8531494140625C87.76223945617676,609.9650421142578,67.832168896993,591.7832387288412,50.87412643432617,570.62939453125C33.91608397165935,549.4755503336588,33.74125889937083,504.7202962239583,25.69930076599121,469.9300842285156C17.657342632611595,435.13987223307294,6.118881146113077,414.510503133138,2.622377634048462,361.88812255859375C-0.8741258780161538,309.2657419840495,-6.818182269732157,195.6293690999349,4.720279693603516,154.19580078125" fill="#072E4F" transform="matrix(0.9975000000000002,5.537237335317968e-17,-5.537237335317968e-17,0.9975000000000002,-2.4844803839922633,-47.27818056106571)"></path></svg>