<svg xmlns="http://www.w3.org/2000/svg" version="1.0" viewBox="15.35 264.17 1469.57 971.44"><path fill="#DA1F3D" d="M 1408.246094 503.101562 C 1408.246094 503.101562 1496.273438 591.128906 1483.699219 666.582031 C 1471.125 742.035156 1376.808594 804.90625 1376.808594 804.90625 C 1376.808594 804.90625 1222.757812 990.394531 1219.617188 1015.546875 C 1216.476562 1040.699219 1235.339844 1043.84375 1241.621094 1065.847656 C 1247.914062 1087.851562 1232.191406 1191.601562 1232.191406 1191.601562 C 1232.191406 1191.601562 1229.050781 1103.570312 1200.753906 1087.851562 C 1172.457031 1072.128906 1172.457031 1072.128906 1172.457031 1072.128906 L 1188.179688 1116.144531 L 1172.457031 1216.75 L 1150.453125 1122.433594 L 1109.585938 1090.996094 L 1109.585938 1216.75 L 1071.859375 1135.007812 L 1040.421875 1116.144531 L 1040.421875 1235.605469 L 974.398438 1135.003906 C 974.398438 1135.003906 886.371094 1172.734375 795.199219 1166.441406 C 704.023438 1160.148438 647.4375 1141.285156 647.4375 1141.285156 L 593.988281 1235.605469 L 593.988281 1131.863281 L 553.121094 1138.152344 L 527.964844 1235.613281 L 527.964844 1113 L 477.667969 1119.289062 L 455.664062 1207.316406 L 455.664062 1072.132812 L 417.933594 1081.5625 L 392.78125 1179.023438 L 392.78125 1065.84375 C 392.78125 1065.84375 414.789062 1037.550781 411.644531 1018.6875 C 408.503906 999.824219 307.898438 943.234375 267.03125 869.347656 C 226.160156 795.46875 185.285156 723.164062 185.285156 723.164062 C 185.285156 723.164062 9.230469 657.140625 15.519531 487.371094 C 21.804688 317.617188 163.28125 264.171875 163.28125 264.171875 L 207.296875 594.269531 L 270.175781 374.199219 C 270.175781 374.199219 421.082031 430.789062 380.210938 572.269531 C 339.34375 713.742188 254.460938 723.171875 254.460938 723.171875 C 254.460938 723.171875 336.203125 870.929688 389.644531 861.5 C 443.089844 852.066406 402.214844 770.324219 499.679688 707.449219 C 597.136719 644.574219 653.726562 616.277344 653.726562 616.277344 L 656.867188 584.839844 C 656.867188 584.839844 512.253906 553.402344 518.539062 455.945312 C 524.832031 358.488281 606.570312 349.054688 653.726562 349.054688 C 700.882812 349.054688 782.625 402.5 766.90625 465.375 C 751.183594 528.253906 710.316406 565.980469 710.316406 565.980469 L 707.175781 603.707031 C 707.175781 603.707031 770.054688 584.84375 814.066406 587.984375 C 858.082031 591.125 886.375 600.558594 886.375 600.558594 L 886.375 562.832031 C 886.375 562.832031 817.210938 525.105469 823.496094 477.945312 C 829.785156 430.789062 861.222656 399.351562 917.8125 396.207031 C 974.402344 393.058594 1015.273438 443.359375 1012.132812 484.230469 C 1008.984375 525.097656 968.113281 587.976562 927.246094 575.40625 L 920.957031 616.273438 C 920.957031 616.273438 1024.703125 628.847656 1097.011719 685.4375 C 1169.324219 742.027344 1238.488281 892.933594 1238.488281 892.933594 L 1320.222656 817.484375 C 1320.222656 817.484375 1238.484375 764.035156 1238.484375 691.734375 C 1238.484375 619.421875 1320.222656 572.269531 1320.222656 572.269531 L 1342.230469 723.171875 Z M 1408.246094 503.101562"></path><path fill="#FFF" d="M 997.949219 924.695312 L 737.847656 918.3125 C 737.847656 918.3125 772.082031 970.675781 794.777344 980.304688 C 817.449219 989.832031 909.898438 1017.390625 962.261719 975.980469 C 1014.578125 934.472656 997.949219 924.695312 997.949219 924.695312 Z M 997.949219 924.695312"></path><path fill="#FFF" d="M 870.253906 502.070312 C 876.542969 535.183594 908.527344 556.871094 941.726562 550.582031 C 974.835938 544.289062 996.597656 512.335938 990.285156 479.207031 C 984.019531 446.09375 952.042969 424.28125 918.886719 430.546875 C 885.675781 436.835938 863.917969 468.941406 870.253906 502.070312 Z M 870.253906 502.070312"></path><path fill="#FFF" d="M 591.3125 489.617188 C 599.195312 531.03125 639.230469 558.167969 680.738281 550.304688 C 722.175781 542.417969 749.390625 502.464844 741.507812 461 C 733.644531 419.589844 693.636719 392.300781 652.152344 400.136719 C 610.644531 408.003906 583.425781 448.160156 591.3125 489.617188 Z M 591.3125 489.617188"></path><path fill="#055C9D" d="M 894.984375 511.917969 C 899.679688 536.847656 923.75 553.132812 948.65625 548.363281 C 973.609375 543.671875 990.015625 519.652344 985.25 494.75 C 980.511719 469.746094 956.464844 453.390625 931.511719 458.15625 C 906.605469 462.921875 890.222656 487.015625 894.984375 511.917969 Z M 894.984375 511.917969"></path><path fill="#055C9D" d="M 620.957031 501.945312 C 626.851562 533.113281 656.9375 553.503906 688.109375 547.535156 C 719.296875 541.667969 739.839844 511.625 733.890625 480.460938 C 727.949219 449.195312 697.855469 428.710938 666.640625 434.679688 C 635.46875 440.644531 614.988281 470.78125 620.957031 501.945312 Z M 620.957031 501.945312"></path></svg>